<?xml version="1.0" encoding="UTF-8"?>
<svg xmlns="http://www.w3.org/2000/svg" 
     width="1964" height="934" 
     viewBox="-58 -309 2092 1643">
  <g fill="#C8A84E" fill-rule="evenodd">
    <path d="M 1698 782 L 1697 782 L 1692 787 L 1692 790 L 1693 791 L 1693 793 L 1696 796 L 1697 796 L 1698 795 L 1699 795 L 1701 793 L 1701 792 L 1702 791 L 1702 788 L 1701 787 L 1701 786 L 1699 784 L 1699 783 Z"/>
    <path d="M 1696 758 L 1695 759 L 1695 760 L 1693 762 L 1693 763 L 1692 764 L 1692 767 L 1694 769 L 1694 770 L 1696 772 L 1698 772 L 1701 769 L 1701 768 L 1702 767 L 1702 765 L 1701 764 L 1701 763 L 1700 762 L 1700 761 L 1697 758 Z"/>
    <path d="M 1785 733 L 1788 760 L 1805 756 L 1809 746 L 1814 743 L 1821 744 L 1824 750 L 1819 760 L 1789 777 L 1787 802 L 1790 812 L 1810 823 L 1824 818 L 1834 824 L 1847 825 L 1844 812 L 1844 734 L 1827 731 Z"/>
    <path d="M 1821 771 L 1823 773 L 1823 802 L 1822 803 L 1822 805 L 1819 808 L 1816 807 L 1810 801 L 1810 799 L 1809 798 L 1809 795 L 1808 794 L 1808 783 L 1809 782 L 1809 780 L 1810 778 L 1816 772 L 1818 771 Z" fill="#0A0A0A"/>
    <path d="M 1899 730 L 1885 737 L 1881 731 L 1854 734 L 1862 747 L 1863 754 L 1862 811 L 1874 823 L 1880 823 L 1889 809 L 1884 799 L 1883 785 L 1886 751 L 1891 744 L 1895 743 L 1898 746 L 1900 757 L 1915 753 L 1918 750 L 1919 733 Z"/>
    <path d="M 1383 728 L 1388 743 L 1389 805 L 1409 818 L 1424 814 L 1432 819 L 1446 820 L 1443 807 L 1442 727 L 1421 728 L 1423 791 L 1419 803 L 1409 795 L 1408 729 L 1404 726 Z"/>
    <path d="M 1680 697 L 1690 709 L 1686 727 L 1694 736 L 1701 736 L 1697 727 L 1699 716 L 1708 710 L 1714 712 L 1711 818 L 1736 835 L 1732 856 L 1738 861 L 1744 856 L 1740 848 L 1743 836 L 1771 815 L 1771 767 L 1754 755 L 1771 741 L 1772 699 Z"/>
    <path d="M 1737 762 L 1739 762 L 1744 765 L 1748 769 L 1750 774 L 1750 806 L 1749 807 L 1749 814 L 1746 816 L 1742 816 L 1740 815 L 1736 811 L 1735 808 L 1735 776 L 1736 775 L 1736 771 L 1735 769 L 1736 768 L 1736 763 Z" fill="#0A0A0A"/>
    <path d="M 1744 709 L 1745 710 L 1747 710 L 1750 714 L 1750 719 L 1751 720 L 1751 723 L 1750 724 L 1750 738 L 1749 739 L 1749 743 L 1744 748 L 1740 750 L 1737 750 L 1736 749 L 1736 722 L 1737 721 L 1737 712 L 1740 709 Z" fill="#0A0A0A"/>
    <path d="M 1615 698 L 1558 699 L 1561 740 L 1570 752 L 1560 771 L 1559 813 L 1580 829 L 1591 829 L 1617 813 L 1617 790 L 1630 787 L 1637 776 L 1637 766 L 1596 769 L 1584 789 L 1599 787 L 1597 810 L 1593 816 L 1583 811 L 1580 772 L 1586 761 L 1599 754 L 1581 738 L 1581 712 L 1591 708 L 1603 722 L 1613 723 Z"/>
    <path d="M 1447 697 L 1456 709 L 1457 802 L 1460 809 L 1466 814 L 1485 820 L 1505 808 L 1510 802 L 1511 735 L 1506 731 L 1495 729 L 1478 731 L 1476 729 L 1475 696 Z"/>
    <path d="M 1482 739 L 1486 740 L 1490 747 L 1489 803 L 1487 805 L 1483 805 L 1478 800 L 1476 793 L 1476 752 L 1477 751 L 1476 750 L 1477 747 L 1476 746 L 1477 742 Z" fill="#0A0A0A"/>
    <path d="M 1284 694 L 1292 704 L 1288 722 L 1296 731 L 1302 731 L 1301 711 L 1310 705 L 1315 707 L 1314 815 L 1327 826 L 1339 821 L 1333 847 L 1340 852 L 1343 849 L 1342 814 L 1336 803 L 1336 784 L 1360 771 L 1371 760 L 1372 695 Z"/>
    <path d="M 1347 704 L 1350 707 L 1351 711 L 1351 718 L 1350 719 L 1350 756 L 1349 757 L 1349 762 L 1344 767 L 1339 769 L 1336 766 L 1337 708 L 1340 704 Z" fill="#0A0A0A"/>
    <path d="M 113 521 L 111 522 L 106 529 L 92 544 L 92 547 L 117 570 L 135 552 L 139 547 L 140 542 L 132 534 L 117 522 Z"/>
    <path d="M 110 459 L 89 483 L 89 486 L 108 505 L 112 508 L 116 508 L 131 491 L 136 483 L 136 480 L 114 460 Z"/>
    <path d="M 1731 417 L 1742 438 L 1771 442 L 1751 454 L 1765 525 L 1847 566 L 1858 586 L 1851 636 L 1818 613 L 1812 584 L 1760 571 L 1746 624 L 1825 675 L 1923 629 L 1909 542 L 1822 497 L 1817 443 L 1856 442 L 1861 468 L 1892 481 L 1913 508 L 1926 418 Z"/>
    <path d="M 313 417 L 323 436 L 351 440 L 329 452 L 341 469 L 342 504 L 367 479 L 393 470 L 395 439 L 435 444 L 435 486 L 347 533 L 345 603 L 335 620 L 411 666 L 441 642 L 474 662 L 515 665 L 493 617 L 488 447 L 497 417 Z"/>
    <path d="M 434 506 L 437 508 L 439 620 L 437 623 L 429 621 L 405 605 L 399 597 L 397 584 L 398 532 L 412 517 Z" fill="#0A0A0A"/>
    <path d="M 1454 414 L 1463 436 L 1493 441 L 1473 452 L 1482 469 L 1483 548 L 1482 604 L 1471 622 L 1549 673 L 1644 627 L 1635 611 L 1635 459 L 1646 418 Z"/>
    <path d="M 1541 440 L 1579 441 L 1582 445 L 1581 602 L 1578 633 L 1548 615 L 1537 600 L 1537 449 Z" fill="#0A0A0A"/>
    <path d="M 1444 415 L 1373 415 L 1340 449 L 1347 414 L 1252 415 L 1267 436 L 1296 440 L 1273 451 L 1284 472 L 1285 598 L 1272 621 L 1320 671 L 1362 627 L 1339 600 L 1340 478 L 1372 439 L 1381 445 L 1381 488 L 1434 465 Z"/>
    <path d="M 1047 414 L 1058 434 L 1089 438 L 1065 451 L 1075 466 L 1077 502 L 1128 470 L 1131 437 L 1172 441 L 1171 486 L 1081 536 L 1078 598 L 1066 620 L 1144 669 L 1174 645 L 1206 665 L 1247 669 L 1227 615 L 1226 443 L 1236 415 Z"/>
    <path d="M 1168 507 L 1173 512 L 1174 627 L 1172 629 L 1138 608 L 1132 600 L 1130 591 L 1131 540 L 1133 534 L 1145 520 Z" fill="#0A0A0A"/>
    <path d="M 700 412 L 633 413 L 600 444 L 605 413 L 513 415 L 525 435 L 554 439 L 532 450 L 544 467 L 549 602 L 537 621 L 585 667 L 624 622 L 609 610 L 601 590 L 602 470 L 632 438 L 639 444 L 640 485 L 690 464 Z"/>
    <path d="M 317 401 L 499 401 L 515 366 L 336 365 Z"/>
    <path d="M 1703 321 L 1697 319 L 1679 320 L 1667 327 L 1657 342 L 1655 358 L 1660 372 L 1667 380 L 1685 389 L 1683 398 L 1667 418 L 1683 415 L 1698 407 L 1709 397 L 1720 379 L 1724 365 L 1723 344 L 1716 330 Z"/>
    <path d="M 38 318 L 44 340 L 91 344 L 57 387 L 84 421 L 116 416 L 94 393 L 106 356 L 146 344 L 125 357 L 140 394 L 147 630 L 138 646 L 212 689 L 214 723 L 201 740 L 221 767 L 239 739 L 223 721 L 225 690 L 310 644 L 298 615 L 300 503 L 242 472 L 300 432 L 289 349 L 301 318 Z"/>
    <path d="M 197 484 L 203 484 L 205 492 L 210 626 L 208 628 L 202 624 L 199 615 L 194 487 Z" fill="#0A0A0A"/>
    <path d="M 216 478 L 231 494 L 244 520 L 246 647 L 243 651 L 227 643 L 220 632 L 213 481 Z" fill="#0A0A0A"/>
    <path d="M 191 344 L 197 345 L 199 355 L 202 426 L 202 462 L 199 465 L 196 465 L 193 462 L 188 351 L 188 347 Z" fill="#0A0A0A"/>
    <path d="M 234 344 L 237 348 L 238 434 L 231 449 L 223 457 L 215 460 L 212 454 L 207 345 L 209 343 Z" fill="#0A0A0A"/>
    <path d="M 942 18 L 863 58 L 848 201 L 777 261 L 757 389 L 707 440 L 687 500 L 694 574 L 729 641 L 861 710 L 859 781 L 819 815 L 860 828 L 848 850 L 874 916 L 875 781 L 916 767 L 936 700 L 1031 632 L 1065 538 L 1043 443 L 968 383 L 1023 328 L 1020 251 L 982 210 L 920 190 L 928 144 L 960 116 L 1013 133 L 1010 159 L 981 160 L 997 193 L 1035 190 L 1047 145 L 1023 109 L 975 95 L 981 46 Z"/>
    <path d="M 910 705 L 912 708 L 911 709 L 911 717 L 910 718 L 910 721 L 905 730 L 900 735 L 891 740 L 888 740 L 887 741 L 883 741 L 879 738 L 877 733 L 877 725 L 873 715 L 873 710 L 876 707 L 896 707 L 897 706 Z" fill="#0A0A0A"/>
    <path d="M 873 611 L 889 637 L 903 666 L 909 684 L 907 688 L 891 691 L 875 691 L 873 689 L 871 613 Z" fill="#0A0A0A"/>
    <path d="M 1014 573 L 1006 605 L 987 638 L 964 661 L 933 680 L 912 640 L 872 581 L 875 579 L 915 595 L 959 599 L 989 591 Z" fill="#0A0A0A"/>
    <path d="M 887 461 L 889 462 L 891 564 L 889 566 L 881 562 L 871 553 L 869 542 L 868 478 Z" fill="#0A0A0A"/>
    <path d="M 759 411 L 786 482 L 858 587 L 859 691 L 828 682 L 793 662 L 769 638 L 752 608 L 747 584 L 752 548 L 767 530 L 787 532 L 776 503 L 751 500 L 748 512 L 738 515 L 728 501 L 736 483 L 754 485 L 760 476 L 759 453 L 743 436 Z" fill="#0A0A0A"/>
    <path d="M 927 403 L 955 421 L 980 447 L 997 473 L 1010 507 L 1007 511 L 995 504 L 974 502 L 954 514 L 948 535 L 959 555 L 973 557 L 970 542 L 977 534 L 984 534 L 991 546 L 990 558 L 980 570 L 957 579 L 933 578 L 929 572 L 924 407 Z" fill="#0A0A0A"/>
    <path d="M 793 394 L 809 391 L 833 394 L 848 402 L 855 412 L 860 438 L 854 442 L 847 441 L 842 435 L 842 422 L 835 423 L 823 435 L 821 452 L 833 472 L 856 480 L 856 540 L 829 514 L 804 472 L 790 422 L 789 398 Z" fill="#0A0A0A"/>
    <path d="M 847 218 L 853 381 L 850 383 L 827 376 L 797 377 L 794 375 L 808 334 L 821 321 L 836 323 L 836 314 L 831 303 L 822 297 L 800 304 L 793 293 L 800 285 L 811 287 L 814 268 L 808 256 L 812 244 L 830 227 Z" fill="#0A0A0A"/>
    <path d="M 922 213 L 946 224 L 967 244 L 979 265 L 985 288 L 984 315 L 975 337 L 953 363 L 928 378 L 924 374 L 920 233 Z" fill="#0A0A0A"/>
    <path d="M 878 209 L 883 211 L 886 412 L 865 387 L 860 215 Z" fill="#0A0A0A"/>
    <path d="M 952 34 L 969 54 L 969 82 L 957 92 L 945 93 L 932 78 L 939 73 L 947 80 L 953 79 L 957 73 L 954 59 L 944 51 L 931 50 L 918 60 L 914 86 L 923 99 L 935 106 L 914 120 L 894 142 L 885 166 L 882 193 L 862 198 L 858 115 L 873 64 L 893 42 L 910 33 L 933 29 Z" fill="#0A0A0A"/>
  </g>
</svg>